<svg width="24" height="24" viewBox="0 0 24 24" fill="none" xmlns="http://www.w3.org/2000/svg">
<path fillRule="evenodd" clipRule="evenodd" d="M5 6C3.89543 6 3 6.89543 3 8V12C3 12.5523 3.44772 13 4 13H5V12C5 11.4477 5.44772 11 6 11H10C10.5523 11 11 11.4477 11 12V13H13V12C13 11.4477 13.4477 11 14 11H18C18.5523 11 19 11.4477 19 12V13H20C20.5523 13 21 12.5523 21 12V8C21 6.89543 20.1046 6 19 6H5ZM1 15C1 14.4477 1.44772 14 2 14H22C22.5523 14 23 14.4477 23 15V19C23 19.5523 22.5523 20 22 20H21.4649C21.8052 20.5883 22 21.2714 22 22H20C20 20.8954 19.1046 20 18 20H6C4.89543 20 4 20.8954 4 22H2C2 21.2714 2.19479 20.5883 2.53513 20H2C1.44772 20 1 19.5523 1 19V15Z" fill="#191F23"/>
</svg>
