<svg xmlns="http://www.w3.org/2000/svg" width="24" height="24" viewBox="0 0 24 24" fill="none">
<path fill-rule="evenodd" clip-rule="evenodd" d="M21 12C21 16.9706 16.9706 21 12 21C7.02944 21 3 16.9706 3 12C3 7.02944 7.02944 3 12 3C16.9706 3 21 7.02944 21 12ZM7.75736 7.75736C8.14788 7.36684 8.78105 7.36684 9.17157 7.75736L12 10.5858L14.8284 7.75736C15.219 7.36684 15.8521 7.36684 16.2426 7.75736C16.6332 8.14788 16.6332 8.78105 16.2426 9.17157L13.4142 12L16.3133 14.8991C16.7039 15.2897 16.7039 15.9228 16.3134 16.3134C15.9228 16.7039 15.2897 16.7039 14.8991 16.3134L12 13.4142L9.17157 16.2426C8.78105 16.6332 8.14788 16.6332 7.75736 16.2426C7.36684 15.8521 7.36684 15.219 7.75736 14.8284L10.5858 12L7.75736 9.17157C7.36684 8.78105 7.36684 8.14788 7.75736 7.75736Z" fill="#CE4242"/>
</svg>
