<svg width="24" height="24" viewBox="0 0 24 24" fill="none" xmlns="http://www.w3.org/2000/svg">
<path fillRule="evenodd" clipRule="evenodd" d="M18.704 7.603L18.3534 3.5329L14.3451 3.88899L11.5 1L8.6549 3.889L4.64661 3.53291L4.29593 7.60303L1 9.94647L3.30785 13.2933L2.26648 17.2397L6.15296 18.2971L7.8534 22L11.5 20.2733L15.1466 22L16.847 18.2971L20.7335 17.2397L19.6922 13.2933L22 9.94646L18.704 7.603ZM15.7071 9.29289C16.0976 9.68342 16.0976 10.3166 15.7071 10.7071L11.7071 14.7071C11.6583 14.7559 11.6057 14.7986 11.5502 14.8352C11.1621 15.0915 10.6346 15.0488 10.2929 14.7071L8.29289 12.7071C7.90237 12.3166 7.90237 11.6834 8.29289 11.2929C8.68342 10.9024 9.31658 10.9024 9.70711 11.2929L11 12.5858L14.2929 9.29289C14.6834 8.90237 15.3166 8.90237 15.7071 9.29289Z" fill="white"/>
</svg>
