<svg width="24" height="24" viewBox="0 0 24 24" fill="none" xmlns="http://www.w3.org/2000/svg">
<path fillRule="evenodd" clipRule="evenodd" d="M10.6202 7.13053C11.4654 7.84145 12 8.625 12 8.625C12 8.625 12.5346 7.84145 13.3798 7.13053C14.0817 6.54023 14.9978 6 16 6C18.2091 6 20 7.76288 20 10.9375C20 15.1375 12 20 12 20C12 20 4 15.1375 4 10.9375C4 7.76288 5.79086 6 8 6C9.00218 6 9.91828 6.54023 10.6202 7.13053ZM12 17.75C12 17.75 17.7168 13.8278 18.025 11C18.1705 9.66458 17.675 8.0125 16 8C14.0125 7.98464 12 11.5238 12 11.5238C12 11.5238 9.9875 7.98464 8 8C6.325 8.0125 5.82945 9.66458 5.975 11C6.2832 13.8278 12 17.75 12 17.75Z" fill="#191F23"/>
</svg>
