<svg width="24" height="24" viewBox="0 0 24 24" fill="none" xmlns="http://www.w3.org/2000/svg">
<path fillRule="evenodd" clipRule="evenodd" d="M18.3534 3.5329L18.7041 7.603L22 9.94646L19.6922 13.2933L20.7335 17.2397L16.847 18.2971L15.1466 22L11.5 20.2733L7.8534 22L6.15296 18.2971L2.26648 17.2397L3.30785 13.2933L1 9.94647L4.29593 7.60303L4.64661 3.53291L8.6549 3.889L11.5 1L14.3451 3.88899L18.3534 3.5329ZM9 10C9.82843 10 10.5 9.32843 10.5 8.5C10.5 7.67157 9.82843 7 9 7C8.17157 7 7.5 7.67157 7.5 8.5C7.5 9.32843 8.17157 10 9 10ZM14 17C14.8284 17 15.5 16.3284 15.5 15.5C15.5 14.6716 14.8284 14 14 14C13.1716 14 12.5 14.6716 12.5 15.5C12.5 16.3284 13.1716 17 14 17ZM15.2033 9.71086C15.3865 9.52961 15.5 9.27806 15.5 9C15.5 8.44772 15.0523 8 14.5 8C14.2239 8 13.9738 8.11193 13.7929 8.29291L7.79287 14.2929C7.61191 14.4739 7.5 14.7239 7.5 15C7.5 15.5523 7.94772 16 8.5 16C8.77806 16 9.02961 15.8865 9.21086 15.7033L15.2033 9.71086Z" fill="#191F23"/>
</svg>
